<?xml version="1.0" encoding="utf-8" ?><svg xmlns="http://www.w3.org/2000/svg" xmlns:xlink="http://www.w3.org/1999/xlink" width="512" height="512" viewBox="0 0 512 512"><path fill="#8E0441" transform="scale(1.68421 1.68421)" d="M161.692 0L163.551 0C162.679 4.25532 161.587 9.49445 159.724 13.4196C167.392 11.2441 172.707 14.5656 179.963 16.3616C188.184 18.3965 201.075 20.9272 208.819 16.3724C210.654 15.2934 210.918 14.4459 212.197 13.2418C210.921 17.7028 209.389 24.3503 206.676 27.8657C209.411 27.5411 211.2 27.4235 213.945 27.958C218.255 28.7972 222.571 30.389 226.796 31.5168C234.05 33.4531 248.821 36.5318 254.235 29.4797C254.714 28.8557 255.381 27.4624 255.728 26.7264C255.515 34.4689 253.815 42.7239 249.35 49.1736C258.416 53.8989 264.326 66.8106 276.261 66.7151C277.551 66.7048 279.894 65.9959 280.909 66.3272C280.319 67.6326 275.303 69.7373 273.822 70.3266C272.636 70.7991 270.591 70.85 269.916 71.384C272.162 73.1781 280.02 70.8062 283.054 70.6926C288.417 70.4918 294.473 71.0268 298.809 74.514C302.643 77.5347 302.361 80.162 304 82.3545L304 83.657C300.543 81.0068 300.003 80.5862 295.96 79.0755C300.036 82.767 300.277 83.691 302.401 88.5387L302.222 88.8989C301.428 88.8393 300.714 88.1127 300.056 87.6305C297.907 86.0543 295.21 85.102 292.567 84.7821L290.268 85.8328C285.465 92.7696 285.452 98.9475 276.975 104.852C283.871 104.676 287.324 103.247 292.757 99.2289C289.401 113.896 284.618 128.828 267.521 131.169C273.115 138.271 277.581 150.722 276.106 159.772C273.051 178.505 264.103 198.753 252.286 213.601C252.336 212.315 252.465 210.826 252.218 209.582C252.118 207.667 251.992 205.982 251.327 204.176C251.067 205.854 250.803 207.527 250.578 209.21C247.435 225.129 240.917 240.419 229.864 252.471C225.849 256.848 220.955 261.814 215.708 264.725C217.705 260.615 220.541 247.744 220.516 243.301C220.935 241.425 220.83 237.932 220.806 235.988C220.772 235.391 220.801 234.661 220.525 234.157C220.154 235.237 220.236 236.486 220.24 237.641C220.176 238.181 220.046 238.985 220.071 239.501C218.451 249.071 214.094 264.947 207.842 272.409C196.082 286.446 173.728 293.55 156.762 299.35C154.069 300.27 142.333 303.079 140.977 304L121.396 304C122.075 303.561 122.67 303.311 122.925 302.588C122.194 301.557 119.666 302.507 117.954 302.207L118.097 302.167L118.161 301.71C118.901 301.135 119.686 300.625 120.464 300.103C121.668 299.697 125.982 296.221 126.883 295.179C135.898 288.858 149.052 272.846 152.501 262.609C155.458 252.094 157.404 238.705 156.211 227.925C154.843 215.575 144.712 211.934 134.879 208.291C131.9 214.557 128.66 225.82 127.845 232.861C128.058 236.064 129.142 239.382 128.991 242.627C128.721 248.415 126.56 257.103 122.439 261.212C117.064 266.572 110.986 266.157 104.264 266.735C100.372 267.069 94.7783 271.351 90.7205 266.862C89.5947 265.597 88.5247 263.515 88.5849 261.892C88.7591 261.182 88.7255 260.164 88.8445 259.382C89.0719 257.888 89.4205 256.538 89.8647 255.095L89.9588 254.875C90.2627 254.159 90.7916 252.95 90.4958 252.216C89.8818 252.835 89.6478 254.021 89.3884 254.907C89.2621 255.413 88.3634 258.381 88.3602 258.441C86.1101 262.033 83.9512 266.338 79.9243 267.904C76.3974 269.275 73.743 268.775 70.1572 269.085C68.3149 269.442 66.7778 270.395 64.8722 270.507C60.7131 270.751 58.539 267.406 55.5985 265.953C47.9942 262.197 43.8994 259.699 40.7713 251.414C39.8689 250.742 38.8548 250.27 37.8506 249.762C36.8127 247.993 36.3079 246.698 35.8976 244.677C34.4766 237.679 33.9344 231.309 35.6731 224.313C36.4458 221.205 37.8582 215.784 39.8514 213.25C41.0355 211.745 42.5804 211.06 43.4216 208.981C44.7621 205.667 45.7188 201.832 46.998 198.576C51.2153 187.841 55.4503 175.003 61.5161 165.309C56.8455 158.74 59.8589 148.423 61.7176 141.237C60.2465 141.127 58.2216 141.006 56.7967 140.776C45.5788 138.96 34.0015 131.797 27.2088 122.803C31.8247 124.807 32.3484 124.784 37.2436 125.695C34.8404 123.094 31.4354 120.249 28.7637 117.481C35.777 120.071 38.2427 119.836 45.7058 120.162C35.0134 112.323 31.354 100.309 36.0367 87.602C36.6112 86.043 36.8956 84.0758 37.1358 82.4289C40.6698 87.7924 43.958 89.8262 49.2591 93.2588C48.2321 87.0356 50.6137 80.816 52.8759 75.0012C44.154 67.6334 35.4957 59.7718 26.9281 52.207C18.7517 44.9877 11.1167 38.9529 4.47578 30.0776C2.43855 27.3549 1.58658 24.9992 0 22.1492L0 18.566C1.93647 17.7695 3.52058 18.1334 5.35247 19.0022C13.8084 23.0127 21.8628 28.5944 29.6287 33.7605L65.0119 57.6613C65.6779 56.1695 67.284 53.4859 68.2294 51.9881C71.3247 47.0843 72.199 41.5951 71.2688 35.9273C71.2034 35.529 71.2027 35.756 71.3911 35.3198C72.2085 35.3823 72.8414 36.0593 73.5239 36.6111C73.5313 33.8739 73.4233 31.4589 73.2761 28.7366L75.7116 31.8452C80.1919 37.6762 82.2004 42.4482 81.2222 49.9113C84.9007 45.9313 92.6971 39.1556 94.9761 34.8953C98.1793 28.9076 95.1034 16.169 93.0853 10.0159C94.4154 10.8854 96.1063 12.2164 97.4134 13.1933C96.4903 9.76631 95.9921 7.67031 94.7655 4.26579C104.1 10.7581 107.816 13.9588 111.085 24.9931C112.454 22.3352 113.448 20.3724 115.735 18.3082C127.779 7.4364 151.2 13.3817 161.692 0ZM242.239 75.4357C246.044 78.0791 249.947 77.7788 254.443 77.013C255.945 76.6219 257.178 76.3011 258.651 75.7751C254.556 74.9011 250.81 73.8505 246.588 74.3022C244.99 74.6575 243.812 74.934 242.239 75.4357Z"/><path fill="#F8C4DA" transform="scale(1.68421 1.68421)" d="M134.71 31.2093C143.054 38.6199 152.148 51.6403 153.04 63.1371C153.219 65.4434 151.336 70.0372 152.228 71.4734C154.039 71.832 154.972 69.6325 155.601 68.2661C156.173 66.1967 156.314 64.709 156.307 62.5595C162.392 61.9544 170.948 61.5204 177.194 62.9558C194.108 66.843 213.8 77.6311 227.579 88.2201C229.121 89.4047 235.107 94.7809 236.032 96.0688C242.625 101.806 243.861 105.062 248.691 110.997C256.235 119.52 262.64 131.919 267.943 141.955C277.476 160 266.28 182.868 255.557 197.865C255.477 194.512 255.173 191.883 254.499 188.59C251.323 174.492 243.23 163.65 232.813 154.043L232.035 154.863C241.29 167.26 249.361 194.533 246.919 210.23C244.558 225.408 236.576 236.585 224.82 246C224.993 245.244 225.502 241.64 225.668 241.267L225.722 240.65C226.956 226.11 225.725 214.349 220.199 200.635C219.21 198.18 217.177 193.766 215.503 191.778C216.715 197.089 217.69 203.837 218.015 209.192C220.158 221.989 218.747 248.432 210.971 259.071C198.524 276.101 164.029 289.585 143.746 294.169C141.167 294.749 138.477 295.605 135.972 296.128L132.292 297.254C134.204 295.361 136.763 293.339 138.824 291.423C154.452 276.901 162.148 253.586 162.741 232.654C163.026 222.606 162.44 214.597 155.334 207.057C150.391 202.695 145.429 200.083 138.844 199.058C142.773 194.801 150.496 187.308 155.687 185.083C167.8 179.893 184.719 179.182 192.237 166.536C196.405 159.526 196.431 149.05 195.421 141.156C195.085 138.525 194.497 135.478 194.156 132.808C194.104 126.352 193.578 121.792 191.848 115.521C190.652 116.666 192.058 117.72 191.139 119.655C191.246 121.088 191.493 123.26 191.285 124.62L191.041 124.796C190.735 124.457 190.685 124.446 190.469 124.036C189.934 124.76 189.479 125.249 189.256 126.116C193.241 137.062 194.309 148.087 189.265 158.935C185.602 166.812 180.174 172.6 171.802 175.386C167.169 176.927 162.401 177.923 157.767 179.452C140.154 185.061 130.764 202.399 126.254 219.198C125.833 220.767 125.124 225.891 124.634 226.774C123.83 225.647 122.899 224.261 121.982 223.255L121.699 223.325C122.261 224.689 123.007 226.367 123.437 227.748C124.457 231.818 124.951 234.702 124.746 238.94C124.836 244.153 124.486 251.045 119.976 254.574C117.427 256.568 114.672 256.616 111.575 256.616C112.171 255.723 113.854 252.551 114.08 252.263L114.447 251.282C114.561 249.966 115.293 249.249 115 248.254L114.561 248.09C112.347 252.111 110.009 254.545 106.146 257.295C102.566 259.844 95.6465 261.437 93.8864 255.803C93.0355 253.078 94.8025 250.231 96.1954 247.897C99.0634 251.405 98.4216 249.568 101.047 251.514C100.729 252.461 100.181 251.841 99.7621 252.58C100.533 252.993 103.452 252.496 104.381 252.251C107.645 251.348 109.792 248.861 111.453 246.045C115.546 239.109 119.366 227.774 110.605 222.637C106.793 220.402 101.725 220.748 97.5456 221.875C94.311 223.308 91.3348 224.655 88.8382 227.26C81.4568 234.961 75.4605 256.7 69.8818 260.887C67.8144 262.439 65.7254 262.352 63.3966 261.438C62.6603 261.149 61.9383 260.804 61.2222 260.469C63.5921 259.72 64.4603 259.152 66.5009 258.388C69.323 256.086 70.5705 254.667 72.0086 251.294C70.5382 252.365 67.7515 254.493 66.1439 255.034C58.1193 257.737 48.5585 251.573 45.5595 244.338C46.4632 243.133 48.1888 239.95 47.627 238.5L47.1967 238.554C46.2324 239.778 44.7716 241.372 43.1762 241.579C39.183 240.208 39.7116 224.001 40.4574 220.102C41.3635 215.366 46.9757 210.468 49.9291 216.231L50.263 216.406C50.5286 215.784 50.1802 214.316 50.0653 213.516C49.6836 211.989 49.5102 211.501 48.8366 210.078C52.7751 192.384 61.3179 171.091 70.177 155.269C69.6586 154.827 69.4795 154.864 68.7698 154.764L67.9905 154.572C63.3876 150.376 66.5478 141.593 68.4792 136.674C68.9543 135.463 69.2566 135.422 70.3323 135.025C73.857 135.201 79.3417 132.859 82.686 131.687C91.6053 128.684 101.253 121.116 104.927 112.114C110.924 97.421 117.788 86.6777 128.508 74.8249C132.254 79.2222 135.272 79.8124 140.615 81.1291C138.55 79.7175 135.977 78.1032 134.202 76.4066C125.862 69.1248 130.055 50.34 132.149 40.8587C133.011 44.2968 133.401 53.6877 133.236 57.198C133.308 59.1938 133.331 60.9408 133.782 62.8978C135.289 69.4421 140.442 72.856 146.947 72.2944C143.322 71.0629 139.603 69.8163 137.787 66.116C135.145 60.7353 135.162 38.6556 134.71 31.2093Z"/><path fill="#F389B8" transform="scale(1.68421 1.68421)" d="M186.346 119.935C187.464 121.71 188.477 124.141 189.256 126.116C193.241 137.062 194.309 148.087 189.265 158.935C185.602 166.812 180.174 172.6 171.802 175.386C167.169 176.927 162.401 177.923 157.767 179.452C140.154 185.061 130.764 202.399 126.254 219.198C125.833 220.767 125.124 225.891 124.634 226.774C123.83 225.647 122.899 224.261 121.982 223.255L121.699 223.325C121.297 222.471 121.472 221.853 121.733 220.962C124.542 211.375 137.645 186.109 144.037 179.044C146.228 176.622 148.912 174.799 151.842 173.382C159.113 169.862 167.369 168.99 174.503 165.104C188.06 157.717 188.842 143.126 187.113 129.349C186.821 127.021 185.619 122.224 186.278 120.131C186.299 120.065 186.323 120 186.346 119.935Z"/><path fill="#F389B8" transform="scale(1.68421 1.68421)" d="M218.015 209.192C220.158 221.989 218.747 248.432 210.971 259.071C198.524 276.101 164.029 289.585 143.746 294.169L145.131 292.463C162.747 286.485 186.325 275.897 200.227 263.616C210.165 254.836 214.839 229.991 216.831 217.01C217.17 214.8 217.967 211.319 218.015 209.192Z"/><path fill="#FEFEFE" transform="scale(1.68421 1.68421)" d="M156.307 62.5595C162.392 61.9544 170.948 61.5204 177.194 62.9558C194.108 66.843 213.8 77.6311 227.579 88.2201C229.121 89.4047 235.107 94.7809 236.032 96.0688C236.192 96.6738 236.334 96.7963 236.716 97.3194L236.845 97.4943C236.231 97.7691 234.806 97.1869 234.298 96.8154C215.267 82.8902 193.877 72.2488 170.298 69.0165C165.672 68.3823 160.564 68.4154 155.889 68.3405C155.793 68.3157 155.697 68.2909 155.601 68.2661C156.173 66.1967 156.314 64.709 156.307 62.5595Z"/><path fill="#F389B8" transform="scale(1.68421 1.68421)" d="M248.691 110.997C256.235 119.52 262.64 131.919 267.943 141.955C277.476 160 266.28 182.868 255.557 197.865C255.477 194.512 255.173 191.883 254.499 188.59C257.009 186.142 260.469 179.12 261.958 175.804C269.37 159.304 265.641 140.606 256.626 125.481C254.658 122.179 248.595 114.483 248.691 110.997Z"/><defs><linearGradient id="gradient_0" gradientUnits="userSpaceOnUse" x1="132.92133" y1="251.42197" x2="167.40903" y2="250.58273"><stop offset="0" stop-color="#FBD5DC"/><stop offset="1" stop-color="white"/></linearGradient></defs><path fill="url(#gradient_0)" transform="scale(1.68421 1.68421)" d="M155.334 207.057L155.848 206.44C157.073 206.35 157.4 207.062 158.31 207.775C168.746 215.945 168.157 227.244 166.269 238.955C163.141 258.362 156.055 277.993 141.029 291.293C139.509 292.639 137.036 294.489 135.972 296.128L132.292 297.254C134.204 295.361 136.763 293.339 138.824 291.423C154.452 276.901 162.148 253.586 162.741 232.654C163.026 222.606 162.44 214.597 155.334 207.057Z"/><path fill="#F389B8" transform="scale(1.68421 1.68421)" d="M230.624 153.482C230.919 153.773 231.762 154.649 232.035 154.863C241.29 167.26 249.361 194.533 246.919 210.23C244.558 225.408 236.576 236.585 224.82 246C224.993 245.244 225.502 241.64 225.668 241.267C226.008 241.353 226.091 241.299 226.468 241.255C229.847 238.805 233.955 233.462 236.113 229.943C248.289 210.09 244.094 185.593 235.443 165.266C233.799 161.404 231.618 157.604 230.624 153.482Z"/><path fill="#FEFEFE" transform="scale(1.68421 1.68421)" d="M73.6596 149.629C74.5062 148.896 74.8894 148.156 75.678 147.406C77.954 145.243 80.4855 142.973 83.1038 141.236C72.3144 155.919 67.9387 164.962 61.9568 182.076L54.6449 203.347C53.5677 206.583 52.6999 209.961 51.3987 213.086C51.2678 213.4 50.3448 213.489 50.0653 213.516C49.6836 211.989 49.5102 211.501 48.8366 210.078C52.7751 192.384 61.3179 171.091 70.177 155.269C69.6586 154.827 69.4795 154.864 68.7698 154.764L70.7018 152.265C71.4128 151.421 72.6001 149.858 73.6596 149.629Z"/><path fill="#A9465D" transform="scale(1.68421 1.68421)" d="M70.7018 152.265C71.4128 151.421 72.6001 149.858 73.6596 149.629C72.9542 150.77 70.8309 154.425 70.177 155.269C69.6586 154.827 69.4795 154.864 68.7698 154.764L70.7018 152.265Z"/><path fill="#FEFEFE" transform="scale(1.68421 1.68421)" d="M47.1967 238.554C46.2324 239.778 44.7716 241.372 43.1762 241.579C39.183 240.208 39.7116 224.001 40.4574 220.102C41.3635 215.366 46.9757 210.468 49.9291 216.231C48.8845 217.861 48.953 222.855 48.8028 224.963C48.4889 229.37 47.5451 233.195 46.555 237.496C46.758 238.122 46.73 238.102 47.1967 238.554Z"/><path fill="#991639" transform="scale(1.68421 1.68421)" d="M43.2349 218.482C43.7144 217.774 43.8285 217.508 44.6365 217.206C47.942 217.61 45.715 226.45 45.773 228.909C45.7935 229.776 45.4605 232.384 45.2438 233.272C45.2329 234.504 45.0705 235.36 44.713 236.551C44.4661 237.124 44.4966 237.109 43.9839 237.449L43.4635 237.329C42.4424 236.201 42.2758 234.634 42.1595 233.18L42.8898 233.231L43.7 233.307L43.9254 233.11C44.948 230.597 42.9686 228.732 43.3227 225.956C43.5599 224.096 45.7436 221.038 45.0235 219.434L44.2642 219.307C43.733 219.142 43.6005 218.902 43.2349 218.482Z"/><path fill="#991639" transform="scale(1.68421 1.68421)" d="M43.9254 233.11L44.1029 233.673L44.4844 233.834L44.6488 233.569L44.5091 234.223L44.7579 233.399L45.2438 233.272C45.2329 234.504 45.0705 235.36 44.713 236.551C44.4661 237.124 44.4966 237.109 43.9839 237.449L43.4635 237.329C42.4424 236.201 42.2758 234.634 42.1595 233.18L42.8898 233.231L43.7 233.307L43.9254 233.11Z"/><path fill="#912245" transform="scale(1.68421 1.68421)" d="M43.9254 233.11L44.1029 233.673L44.4844 233.834L44.6488 233.569L44.5091 234.223L44.7579 233.399L45.2438 233.272C45.2329 234.504 45.0705 235.36 44.713 236.551C43.5956 235.307 43.5765 234.968 43.7 233.307L43.9254 233.11Z"/><path fill="#912245" transform="scale(1.68421 1.68421)" d="M43.2349 218.482C43.6005 218.902 43.733 219.142 44.2642 219.307C43.7337 219.965 43.6495 220.31 42.9512 220.507C42.745 219.644 42.9677 219.434 43.2349 218.482Z"/><path fill="#956274" transform="scale(1.68421 1.68421)" d="M42.1595 233.18C42.1129 232.412 42.02 232.154 42.3778 231.518C42.8832 232.152 42.7669 232.347 42.8898 233.231L42.1595 233.18Z"/><path fill="#F389B8" transform="scale(1.68421 1.68421)" d="M66.5009 258.388L66.5125 258.89L65.6717 259.328L65.8572 259.595C66.4324 259.29 67.2357 259.131 67.3641 259.058C73.5876 255.521 76.9863 244.051 80.0895 238.398C83.3412 232.474 85.8025 223.997 92.3623 222.08C94.4558 221.469 95.7339 220.981 97.5456 221.875C94.311 223.308 91.3348 224.655 88.8382 227.26C81.4568 234.961 75.4605 256.7 69.8818 260.887C67.8144 262.439 65.7254 262.352 63.3966 261.438C62.6603 261.149 61.9383 260.804 61.2222 260.469C63.5921 259.72 64.4603 259.152 66.5009 258.388Z"/><path fill="#FEFEFE" transform="scale(1.68421 1.68421)" d="M132.149 40.8587C133.011 44.2968 133.401 53.6877 133.236 57.198C132.677 61.1866 132.007 63.5156 132.305 67.643C132.488 70.1674 134.734 75.138 134.202 76.4066C125.862 69.1248 130.055 50.34 132.149 40.8587Z"/><path fill="#F389B8" transform="scale(1.68421 1.68421)" d="M124.746 238.94C124.836 244.153 124.486 251.045 119.976 254.574C117.427 256.568 114.672 256.616 111.575 256.616C112.171 255.723 113.854 252.551 114.08 252.263L114.469 252.406C118.104 252.201 124.228 242.412 124.746 238.94Z"/><path fill="#FEFEFE" transform="scale(1.68421 1.68421)" d="M68.7698 154.764L67.9905 154.572C63.3876 150.376 66.5478 141.593 68.4792 136.674C68.9543 135.463 69.2566 135.422 70.3323 135.025C70.2777 140.079 66.2333 148.13 70.7018 152.265L68.7698 154.764Z"/><defs><linearGradient id="gradient_1" gradientUnits="userSpaceOnUse" x1="188.11659" y1="118.13645" x2="184.74806" y2="119.17419"><stop offset="0" stop-color="#A70924"/><stop offset="1" stop-color="#961946"/></linearGradient></defs><path fill="url(#gradient_1)" transform="scale(1.68421 1.68421)" d="M181.842 111.472C185.811 115.29 187.994 119.097 190.469 124.036C189.934 124.76 189.479 125.249 189.256 126.116C188.477 124.141 187.464 121.71 186.346 119.935C184.893 117.099 183.243 114.237 181.842 111.472Z"/><path fill="#A9465D" transform="scale(1.68421 1.68421)" d="M114.561 248.09C115.319 246.011 116.1 243.271 116.865 241.382C116.576 244.427 116.21 248.697 114.447 251.282C114.561 249.966 115.293 249.249 115 248.254L114.561 248.09Z"/><path fill="#912245" transform="scale(1.68421 1.68421)" d="M191.139 119.655C190.837 117.372 190.771 114.525 190.803 112.226C191.252 113.376 191.515 114.33 191.848 115.521C190.652 116.666 192.058 117.72 191.139 119.655Z"/><path fill="#A9465D" transform="scale(1.68421 1.68421)" d="M228.591 150.992C229.976 151.9 231.648 152.9 232.813 154.043L232.035 154.863C231.762 154.649 230.919 153.773 230.624 153.482L228.591 150.992Z"/><path fill="#8E0441" transform="scale(1.68421 1.68421)" d="M134.143 107.633C137.902 106.298 141.757 106.435 145.709 106.563C137.298 109.392 130.545 111.645 127.828 121.068C128.837 121.58 129.903 120.001 131.218 119.308C136.833 116.347 139.754 117.327 145.265 117.511L146.935 117.374C146.923 117.406 138.468 122.226 137.39 123.014C135.514 133.566 132.524 149.108 119.528 151.117C118.345 152.468 117.533 153.389 116.11 154.527C110.184 159.261 100.986 156.526 98.4007 149.468C98.0958 148.635 97.89 147.674 97.6874 146.803C100.238 150.476 100.475 151.328 104.456 153.142C105.734 152.284 107.34 152.129 108.687 151.349C115.4 147.463 116.592 126.736 118.781 119.069C119.869 115.257 122.367 111.918 125.881 110.01C128.17 108.766 131.51 106.839 134.143 107.633Z"/><path fill="#F389B8" transform="scale(1.68421 1.68421)" d="M104.456 153.142C105.734 152.284 107.34 152.129 108.687 151.349C115.4 147.463 116.592 126.736 118.781 119.069C119.869 115.257 122.367 111.918 125.881 110.01C128.17 108.766 131.51 106.839 134.143 107.633C125.748 112.709 123.762 118.187 121.09 128.033C118.979 135.812 118.243 155.012 105.561 153.517C105.351 153.492 104.689 153.23 104.456 153.142Z"/><path fill="#F389B8" transform="scale(1.68421 1.68421)" d="M127.828 121.068C128.837 121.58 129.903 120.001 131.218 119.308C136.833 116.347 139.754 117.327 145.265 117.511C136.54 118.545 130.875 123 125.354 129.299C126.539 126.295 126.915 123.519 127.828 121.068Z"/><path fill="#FEFEFE" transform="scale(1.68421 1.68421)" d="M134.513 123.168L134.782 123.296C134.991 124.222 134.069 127.984 133.736 129.029C130.805 138.231 129.449 143.885 120.874 148.844L121.772 146.37L122.746 142.886C123.944 141.961 127.865 143.109 128.527 140.575C129.566 136.596 128.635 135.11 124.981 133.693C128.239 129.823 130.863 126.701 134.513 123.168Z"/><path fill="#8E0441" transform="scale(1.68421 1.68421)" d="M67.7345 236.412C62.1483 237.16 58.3035 232.929 56.7334 228.013C55.1185 223.337 56.4587 217.626 58.7375 213.266C61.8465 207.318 72.542 198.647 79.6126 202.06C82.4069 203.408 83.1342 207.459 83.8996 210.244C82.048 207.673 81.5055 207.036 78.5716 205.977C75.9337 208.16 77.4316 207.315 74.5842 208.06C76.5206 208.264 78.0989 208.408 79.4146 210.1C82.5709 214.157 79.1621 223.639 75.6016 226.592C73.4463 228.38 70.5675 228.612 67.9579 227.69L67.791 227.755C68.8188 230.647 69.808 231.709 67.2464 234.324L67.2051 234.523C67.2259 234.634 67.6937 236.297 67.7345 236.412Z"/><path fill="#8E0441" transform="scale(1.68421 1.68421)" d="M74.5842 208.06C76.5206 208.264 78.0989 208.408 79.4146 210.1C82.5709 214.157 79.1621 223.639 75.6016 226.592C73.4463 228.38 70.5675 228.612 67.9579 227.69C68.2906 226.32 68.5774 226.369 69.7222 225.76C67.4996 225.207 66.2189 222.982 64.6283 222.738C63.1947 220.463 63.7638 214.337 66.3024 212.749C67.3316 212.76 68.0739 212.145 68.8934 211.576C70.0128 211.009 71.0896 210.483 72.2276 209.955L72.0169 209.826C72.5545 209.642 72.3694 209.809 72.6271 209.353L72.239 208.793L74.5842 208.06Z"/><path fill="#F8C4DA" transform="scale(1.68421 1.68421)" d="M72.2276 209.955C73.4714 210.017 76.3671 210.068 76.9438 211.491C76.3574 211.957 74.6575 211.788 74.0035 212.069C70.7901 213.45 69.2528 217.857 68.7877 221.011C68.3526 223.961 69.4297 224.189 69.7222 225.76C67.4996 225.207 66.2189 222.982 64.6283 222.738C63.1947 220.463 63.7638 214.337 66.3024 212.749C67.3316 212.76 68.0739 212.145 68.8934 211.576C70.0128 211.009 71.0896 210.483 72.2276 209.955Z"/><path fill="#FEFEFE" transform="scale(1.68421 1.68421)" d="M67.2464 234.324C54.7859 231.042 59.6093 201.254 78.5716 205.977C75.9337 208.16 77.4316 207.315 74.5842 208.06L72.239 208.793L72.6271 209.353C72.3694 209.809 72.5545 209.642 72.0169 209.826L72.2276 209.955C71.0896 210.483 70.0128 211.009 68.8934 211.576C68.0739 212.145 67.3316 212.76 66.3024 212.749C63.7638 214.337 63.1947 220.463 64.6283 222.738C66.2189 222.982 67.4996 225.207 69.7222 225.76C68.5774 226.369 68.2906 226.32 67.9579 227.69L67.791 227.755C68.8188 230.647 69.808 231.709 67.2464 234.324Z"/><path fill="#991639" transform="scale(1.68421 1.68421)" d="M64.6283 222.738C66.2189 222.982 67.4996 225.207 69.7222 225.76C68.5774 226.369 68.2906 226.32 67.9579 227.69L67.791 227.755C66.0455 226.566 65.3675 224.598 64.6283 222.738Z"/><path fill="#991639" transform="scale(1.68421 1.68421)" d="M68.7094 210.895C70.1648 209.831 70.5864 209.542 72.239 208.793L72.6271 209.353C72.3694 209.809 72.5545 209.642 72.0169 209.826L72.2276 209.955C71.0896 210.483 70.0128 211.009 68.8934 211.576L68.7094 210.895Z"/><path fill="#F389B8" transform="scale(1.68421 1.68421)" d="M68.7094 210.895L68.8934 211.576C68.0739 212.145 67.3316 212.76 66.3024 212.749C67.1106 211.952 67.7772 211.532 68.7094 210.895Z"/><path fill="#FEFEFE" transform="scale(1.68421 1.68421)" d="M120.636 103.618C118.064 105.788 115.044 108.226 112.903 110.771C113.165 111.079 113.541 111.376 113.38 111.858C111.001 119.002 110.428 125.961 109.503 133.456C109.15 136.316 108.142 147.012 103.127 145.637C98.6154 143.772 99.0697 136.859 100.27 133.071C100.515 132.085 101.228 130.648 101.351 130.061C101.091 128.889 101.425 127.126 101.583 125.884C103.737 114.892 110.809 108.211 120.636 103.618Z"/><path fill="#991639" transform="scale(1.68421 1.68421)" d="M120.636 103.618C118.064 105.788 115.044 108.226 112.903 110.771C108.553 115.737 105.086 120.28 102.688 126.525L101.583 125.884C103.737 114.892 110.809 108.211 120.636 103.618Z"/><path fill="#912245" transform="scale(1.68421 1.68421)" d="M101.583 125.884L102.688 126.525L101.351 130.061C101.091 128.889 101.425 127.126 101.583 125.884Z"/><path fill="#F389B8" transform="scale(1.68421 1.68421)" d="M86.7667 157.919L75.3408 191.141C74.8946 192.483 74.4301 193.997 73.891 195.289C73.4721 196.878 71.3961 201.15 70.3857 202.501C70.453 195.03 73.3936 174.964 80.1322 170.47C82.2477 165.727 84.186 162.38 86.7667 157.919Z"/><path fill="#991639" transform="scale(1.68421 1.68421)" d="M86.7667 157.919L75.3408 191.141C74.8853 191.285 74.9038 191.256 74.4284 191.16L74.0848 190.163C75.6604 182.325 77.3349 177.881 80.1322 170.47C82.2477 165.727 84.186 162.38 86.7667 157.919Z"/><path fill="#912245" transform="scale(1.68421 1.68421)" d="M74.0848 190.163L74.4284 191.16C74.9038 191.256 74.8853 191.285 75.3408 191.141C74.8946 192.483 74.4301 193.997 73.891 195.289C73.2939 194.216 73.8878 191.463 74.0848 190.163Z"/><defs><linearGradient id="gradient_2" gradientUnits="userSpaceOnUse" x1="131.02322" y1="139.88907" x2="136.4165" y2="143.50623"><stop offset="0" stop-color="#920C20"/><stop offset="1" stop-color="#9B0D43"/></linearGradient></defs><path fill="url(#gradient_2)" transform="scale(1.68421 1.68421)" d="M139.563 126.222L140.288 126.45C140.164 130.701 140.716 133.529 139.469 137.818C136.525 147.95 130.428 152.62 120.218 153.99C121.28 153.429 122.602 152.954 123.723 152.471C134.633 147.775 138.219 137.174 139.563 126.222Z"/><path fill="#991639" transform="scale(1.68421 1.68421)" d="M91.2995 217.999C96.0237 212.028 105.945 208.693 112.55 213.687C116.755 216.866 117.272 222.342 117.917 227.175C116.177 222.302 114.633 217.417 109.525 215.159C102.84 212.204 96.9525 213.783 91.8248 218.385L91.2995 217.999Z"/><path fill="#991639" transform="scale(1.68421 1.68421)" d="M99.5381 156.867C92.7972 155.254 87.6845 154.208 91.346 146.338C92.9783 152.564 95.7312 154.17 101.559 156.379C100.751 156.964 100.501 156.905 99.5381 156.867Z"/><path fill="#991639" transform="scale(1.68421 1.68421)" d="M67.2051 234.523C70.8169 235.085 71.936 234.315 75.3124 232.925C72.6946 234.916 71.0915 236.01 67.7345 236.412C67.6937 236.297 67.2259 234.634 67.2051 234.523Z"/><path fill="#A9465D" transform="scale(1.68421 1.68421)" d="M101.559 156.379C102.325 156.557 103.047 156.641 103.652 157.112C102.64 157.356 100.629 157.027 99.5381 156.867C100.501 156.905 100.751 156.964 101.559 156.379Z"/><path fill="#956274" transform="scale(1.68421 1.68421)" d="M139.563 126.222C139.488 124.702 139.512 123.989 139.662 122.473C139.86 123.505 140.299 125.48 140.288 126.45L139.563 126.222Z"/><path fill="#A9465D" transform="scale(1.68421 1.68421)" d="M91.2995 217.999L91.8248 218.385C91.2128 219.1 90.2899 220.01 89.6205 220.711C90.2297 219.552 90.5265 219.047 91.2995 217.999Z"/><defs><linearGradient id="gradient_3" gradientUnits="userSpaceOnUse" x1="201.0647" y1="24.766367" x2="190.61647" y2="66.067436"><stop offset="0" stop-color="#FFB83D"/><stop offset="1" stop-color="#FFD28D"/></linearGradient></defs><path fill="url(#gradient_3)" transform="scale(1.68421 1.68421)" d="M140.172 31.475C143.695 29.3966 147.713 26.4854 151.07 24.1005C152.624 22.9966 156.485 19.1212 157.905 18.4723C172.615 11.7468 186.492 25.4973 201.812 22.3425C201.546 23.3564 201.294 23.5231 200.703 24.3337L202.533 24.7166C196.974 30.0037 191.871 32.759 184.5 34.9554C183.217 35.9207 182.27 36.0315 180.747 36.3649C182.225 36.5793 183.003 35.9199 184.798 36.2466C187.6 35.6154 190.877 34.8207 193.534 33.7162C201.661 30.3377 210.867 30.532 219.314 32.5452C227.843 34.578 238.996 39.6912 247.952 37.0675C247.994 37.3384 248.177 38.3909 248.177 38.5969C249.202 38.5753 249.47 38.5977 250.454 38.2658C242.411 49.2994 223.082 37.3785 217.504 55.8089C220.285 52.3964 225.195 48.511 229.602 48.2977C236.825 47.948 245.956 50.7866 251.488 55.5536C253.83 57.5715 256.149 59.9596 258.286 62.1144C256.875 61.8742 255.975 61.4049 254.671 60.8725C248.416 58.3184 241.865 54.4242 234.951 54.2932C227.455 59.5138 221.28 70.954 221.92 80.201C219.623 78.9091 215.577 75.6529 212.995 74.0534C204.404 68.7315 197.214 65.7245 187.774 62.453L185.385 61.8104L180.768 60.7024C172.027 58.4296 165.039 58.1329 156.191 58.1815C154.302 49.752 152.533 44.8666 146.925 38.2739C144.75 36.0308 142.458 33.5785 140.172 31.475Z"/><defs><linearGradient id="gradient_4" gradientUnits="userSpaceOnUse" x1="229.806" y1="33.443089" x2="217.18094" y2="77.915833"><stop offset="0" stop-color="#F46D43"/><stop offset="1" stop-color="#F99B72"/></linearGradient></defs><path fill="url(#gradient_4)" transform="scale(1.68421 1.68421)" d="M248.177 38.5969C249.202 38.5753 249.47 38.5977 250.454 38.2658C242.411 49.2994 223.082 37.3785 217.504 55.8089C220.285 52.3964 225.195 48.511 229.602 48.2977C236.825 47.948 245.956 50.7866 251.488 55.5536C253.83 57.5715 256.149 59.9596 258.286 62.1144C256.875 61.8742 255.975 61.4049 254.671 60.8725C248.416 58.3184 241.865 54.4242 234.951 54.2932C227.455 59.5138 221.28 70.954 221.92 80.201C219.623 78.9091 215.577 75.6529 212.995 74.0534C204.404 68.7315 197.214 65.7245 187.774 62.453C189.206 58.2421 192.487 49.6694 196.565 47.4512C206.642 41.9693 220.967 41.3106 232.294 40.6034C238.208 40.2342 242.519 41.1955 248.177 38.5969Z"/><path fill="#FEC158" transform="scale(1.68421 1.68421)" d="M209.87 45.8409L210.023 45.8224C211.03 45.703 212.663 45.4173 213.492 46.0714C212.905 46.886 209.539 47.3682 208.451 47.635C205.65 48.3217 203.17 49.2776 200.632 50.674C199.658 51.408 198.084 52.2958 197.005 52.9479C200.697 47.8839 203.867 46.6168 209.87 45.8409Z"/><path fill="#F389B8" transform="scale(1.68421 1.68421)" d="M218.496 64.6212L218.828 64.7646C218.95 65.2811 215.882 73.6553 215.35 74.9395C213.209 72.4459 216.816 66.633 218.496 64.6212Z"/><path fill="#F389B8" transform="scale(1.68421 1.68421)" d="M233.492 50.7834C234.534 50.8215 235.141 50.9012 236.065 51.3653L236.179 51.7469C232.849 53.0401 232.829 51.2743 229.336 54.5144C228.315 55.6006 227.75 56.0216 226.547 56.9277C228.183 53.5682 229.767 51.6121 233.492 50.7834Z"/><path fill="#FEC158" transform="scale(1.68421 1.68421)" d="M201.983 55.1135L202.435 55.368L202.476 55.7301C201.806 56.6842 197.639 60.4974 196.546 61.5629L196.172 61.5864L196.074 61.1467C197.253 58.3921 199.636 56.8362 201.983 55.1135Z"/><path fill="#FAA24D" transform="scale(1.68421 1.68421)" d="M221.634 42.5913C222.802 42.3533 224.509 42.2888 225.527 42.9715L225.484 43.3422C224.613 43.9112 223.191 43.759 222.098 43.751C220.872 43.9259 219.262 44.3295 218.245 43.631L218.399 43.2578C219.427 42.668 220.451 42.6843 221.634 42.5913Z"/><path fill="#C77BB9" transform="scale(1.68421 1.68421)" d="M221.132 67.4227C221.626 67.4018 222.308 67.3094 222.717 67.5177L222.01 69.2009C221.636 70.2992 221.218 71.4613 220.892 72.5668L220.448 72.508C219.797 71.9628 220.003 72.1918 219.759 71.2235C220.008 70.4801 220.29 69.7308 220.559 68.9926L221.132 67.4227Z"/><path fill="#F389B8" transform="scale(1.68421 1.68421)" d="M220.892 72.5668C220.692 73.7947 220.645 75.3173 219.693 76.0153L219.288 75.7034C218.735 74.1515 219.318 72.8179 219.759 71.2235C220.003 72.1918 219.797 71.9628 220.448 72.508L220.892 72.5668Z"/><path fill="#F389B8" transform="scale(1.68421 1.68421)" d="M224.086 63.0521L224.627 63.8917C223.913 64.8083 223.231 66.4244 222.717 67.5177C222.308 67.3094 221.626 67.4018 221.132 67.4227C222.03 65.7255 222.86 64.5182 224.086 63.0521Z"/><path fill="#E87E78" transform="scale(1.68421 1.68421)" d="M224.086 63.0521C223.935 61.8563 223.657 60.9485 224.652 60.0771C225.897 60.6516 224.939 62.8651 224.627 63.8917L224.086 63.0521Z"/><path fill="#FEF462" transform="scale(1.68421 1.68421)" d="M140.172 31.475C143.695 29.3966 147.713 26.4854 151.07 24.1005C152.624 22.9966 156.485 19.1212 157.905 18.4723C172.615 11.7468 186.492 25.4973 201.812 22.3425C201.546 23.3564 201.294 23.5231 200.703 24.3337C190.048 29.4417 177.127 30.0413 165.472 30.0649C161.292 30.0734 156.354 29.571 152.413 30.9012C148.93 32.0772 148.446 37.5177 146.925 38.2739C144.75 36.0308 142.458 33.5785 140.172 31.475Z"/><path fill="#FEB928" transform="scale(1.68421 1.68421)" d="M155.909 26.6053C159.217 26.2447 162.777 26.7969 165.982 27.6113C163.54 28.4047 155.991 28.617 152.176 29.4638C149.013 30.3639 147.924 30.9574 145.029 32.5006C148.19 27.9009 150.417 27.0275 155.909 26.6053Z"/><path fill="#FEC158" transform="scale(1.68421 1.68421)" d="M171.022 26.85C175.923 26.819 180.723 26.9984 185.677 26.9134L186.084 27.335C182.713 28.3487 174.244 28.3297 171.022 26.85Z"/><path fill="#FEE65E" transform="scale(1.68421 1.68421)" d="M165.495 21.5348C167.323 21.3806 168.552 21.0899 169.904 22.5201C168.788 22.4724 166.584 21.8477 165.495 21.5348Z"/><path fill="#F78055" transform="scale(1.68421 1.68421)" d="M180.768 60.7024C182.442 53.215 189.171 45.7662 196.306 42.9902C189.187 48.8439 187.395 52.7553 185.385 61.8104L180.768 60.7024Z"/><path fill="#B45E41" transform="scale(1.68421 1.68421)" d="M175.212 37.1582C178.241 36.3511 181.437 35.6618 184.5 34.9554C183.217 35.9207 182.27 36.0315 180.747 36.3649C182.225 36.5793 183.003 35.9199 184.798 36.2466C181.751 37.1146 178.363 37.2285 175.212 37.1582Z"/><path fill="#F78055" transform="scale(1.68421 1.68421)" d="M200.303 37.6052C201.895 37.2923 205.117 37.5799 206.768 37.8018C204.809 38.5031 202.599 38.804 200.649 39.4025C195.877 40.8672 188.352 43.1741 184.361 46.0205C182.87 46.9259 181.367 48.0107 179.927 49.0094C185.673 41.5599 190.779 38.3086 200.303 37.6052Z"/><path fill="#FEF462" transform="scale(1.68421 1.68421)" d="M172.426 31.5531C174.863 31.3406 178.343 31.1023 180.445 32.4851L180.373 32.7811C179.444 33.0724 173.94 33.2377 171.563 33.6652C170.125 33.8883 165.532 35.0773 164.574 34.4123C165.665 33.2975 170.768 31.8922 172.426 31.5531Z"/><path fill="#F78055" transform="scale(1.68421 1.68421)" d="M217.336 37.6081C218.874 37.4479 223.585 37.8576 224.662 38.9535C223.721 39.6928 220.357 39.1736 219.06 39.0564C215.843 38.7301 212.967 39.1868 209.62 38.6948C212.35 38.0438 214.557 37.8068 217.336 37.6081Z"/><path fill="#FEE65E" transform="scale(1.68421 1.68421)" d="M157.677 37.4135L158.157 37.5022L158.295 37.807C157.227 39.6637 156.141 41.9558 155.361 43.9547C155.028 44.8052 155.009 45.5263 154.567 46.6383L153.909 46.2805C152.789 43.5334 155.709 39.2281 157.677 37.4135Z"/><path fill="#FEE65E" transform="scale(1.68421 1.68421)" d="M156.368 33.4145C156.825 33.6569 156.671 33.4784 156.842 33.9669C156.067 35.1791 153.147 38.9123 152.095 40.3534L151.631 39.9328C151.327 37.5203 154.608 34.7261 156.368 33.4145Z"/><path fill="#FEE65E" transform="scale(1.68421 1.68421)" d="M167.275 37.5242C167.898 37.4656 167.988 37.4807 168.613 37.5731L168.684 37.9118C167.887 38.6441 163.715 40.4426 162.518 41.0007C162.064 41.2754 162.066 41.3216 161.521 41.2897L161.443 40.8332C162.593 38.9695 165.303 38.1151 167.275 37.5242Z"/><path fill="#FEC158" transform="scale(1.68421 1.68421)" d="M189.072 29.8329L191.842 30.2395L188.838 31.7615C187.723 31.7347 187.067 31.8919 186.294 31.0183L186.492 30.5146C187.184 29.8887 188.128 29.9199 189.072 29.8329Z"/><defs><linearGradient id="gradient_5" gradientUnits="userSpaceOnUse" x1="261.62231" y1="59.342159" x2="253.90759" y2="100.28703"><stop offset="0" stop-color="#C267A6"/><stop offset="1" stop-color="#D194C3"/></linearGradient></defs><path fill="url(#gradient_5)" transform="scale(1.68421 1.68421)" d="M234.951 54.2932C241.865 54.4242 248.416 58.3184 254.671 60.8725C255.975 61.4049 256.875 61.8742 258.286 62.1144C261.556 64.5336 263.721 65.8165 267.639 67.1147C268.534 67.4115 271.351 68.3168 272.075 68.6637C268.789 68.7742 265.926 68.3741 262.682 67.9385C253.439 66.6973 236.755 60.5946 238.559 76.4532C238.937 77.4232 239.224 78.5142 240.159 78.9609C240.65 77.6157 239.835 77.521 240.308 76.2776C252.209 88.5863 283.669 68.625 295.287 75.6008C296.727 76.5368 297.127 76.9949 298.287 78.214C296.466 77.4611 295.481 76.9576 293.476 76.8543L291.229 77.3024C289.536 78.2053 288.648 79.0404 287.318 80.4163C284.771 83.8101 283.814 86.2292 281.893 89.9767C277.758 98.0429 270.882 99.8379 262.807 101.625C262.361 102.279 262.132 102.656 261.542 103.211C260.53 103.041 259.252 102.918 258.407 102.391L258.461 102.032C257.504 101.701 256.518 102.831 254.359 102.487L254.185 102.231C254.623 101.873 255.309 101.72 255.848 101.89L255.963 101.765C254.709 101.651 254.125 101.511 252.883 101.245C252.5 101.163 251.396 101.077 250.95 101.03C249.349 101.015 247.953 98.2227 245.192 100.312L244.499 99.5666L243.007 98.0874C242.195 97.3812 241.479 96.6027 240.736 95.825C235.722 90.7165 227.606 84.4961 221.92 80.201C221.28 70.954 227.455 59.5138 234.951 54.2932Z"/><path fill="#16BDF3" transform="scale(1.68421 1.68421)" d="M280.994 81.0936C282.371 79.4745 289.457 75.7368 291.229 77.3024C289.536 78.2053 288.648 79.0404 287.318 80.4163C284.771 83.8101 283.814 86.2292 281.893 89.9767C277.758 98.0429 270.882 99.8379 262.807 101.625C262.361 102.279 262.132 102.656 261.542 103.211C260.53 103.041 259.252 102.918 258.407 102.391L258.461 102.032C257.504 101.701 256.518 102.831 254.359 102.487L254.185 102.231C254.623 101.873 255.309 101.72 255.848 101.89L255.963 101.765C254.709 101.651 254.125 101.511 252.883 101.245C254.417 101.154 256.074 101.144 257.519 100.662C258.24 100.465 258.644 100.316 259.336 100.033C259.773 98.9098 259.016 99.6431 259.233 98.0516C263.156 97.5303 269.219 95.107 271.448 91.9591C274.552 87.5766 276.804 84.6299 280.994 81.0936Z"/><path fill="#70A6DE" transform="scale(1.68421 1.68421)" d="M280.994 81.0936C282.371 79.4745 289.457 75.7368 291.229 77.3024C289.536 78.2053 288.648 79.0404 287.318 80.4163C287.493 79.5294 287.446 79.5142 288.29 78.8638L288.316 78.149L288.018 78.0095C286.306 79.3418 284.122 82.9244 282.146 82.7014C281.774 82.1774 281.773 82.0381 281.605 81.4025L280.994 81.0936Z"/><path fill="#912245" transform="scale(1.68421 1.68421)" d="M258.461 102.032C259.686 102.024 261.545 101.763 262.807 101.625C262.361 102.279 262.132 102.656 261.542 103.211C260.53 103.041 259.252 102.918 258.407 102.391L258.461 102.032Z"/><path fill="#B093BF" transform="scale(1.68421 1.68421)" d="M279.779 86.5012L280.089 86.9971C279.399 89.6309 272.727 94.9867 270.263 96.2988L269.915 95.9363C270.235 94.7684 278.364 87.7288 279.779 86.5012Z"/><path fill="#70A6DE" transform="scale(1.68421 1.68421)" d="M244.499 99.5666C244.696 99.4478 257.367 98.3493 259.233 98.0516C259.016 99.6431 259.773 98.9098 259.336 100.033C258.644 100.316 258.24 100.465 257.519 100.662C256.074 101.144 254.417 101.154 252.883 101.245C252.5 101.163 251.396 101.077 250.95 101.03C249.349 101.015 247.953 98.2227 245.192 100.312L244.499 99.5666Z"/><path fill="#9BA0D0" transform="scale(1.68421 1.68421)" d="M250.95 101.03L250.924 100.366C251.951 99.5193 256.336 99.7129 257.519 100.662C256.074 101.144 254.417 101.154 252.883 101.245C252.5 101.163 251.396 101.077 250.95 101.03Z"/><path fill="#70A6DE" transform="scale(1.68421 1.68421)" d="M240.736 95.825C241.404 95.5519 251.993 96.0037 253.079 96.2989L253.35 96.6451C252.955 97.1507 252.639 97.155 251.961 97.2361L250.375 97.5051C247.896 98.0629 245.462 97.721 243.007 98.0874C242.195 97.3812 241.479 96.6027 240.736 95.825Z"/><path fill="#16BDF3" transform="scale(1.68421 1.68421)" d="M250.375 97.5051C249.011 97.4312 245.985 97.915 244.979 97.0288C245.804 95.9169 250.295 96.0011 251.6 96.5169C251.796 96.5943 251.876 97.0058 251.961 97.2361L250.375 97.5051Z"/><path fill="#F389B8" transform="scale(1.68421 1.68421)" d="M295.287 75.6008C296.727 76.5368 297.127 76.9949 298.287 78.214C296.466 77.4611 295.481 76.9576 293.476 76.8543C294.126 76.7467 294.284 76.7201 294.896 76.4908L295.287 75.6008Z"/><path fill="#16BDF3" transform="scale(1.68421 1.68421)" d="M273.605 83.5529C273.945 83.6791 274.665 83.922 274.965 84.0697C274.154 85.2209 271.544 88.9775 270.675 89.7757C269.38 91.7492 264.574 95.7322 262.279 95.7037C262.481 94.6572 266.944 90.6918 268.281 89.1712C269.863 87.3072 271.878 85.3263 273.605 83.5529Z"/><path fill="#F78055" transform="scale(1.68421 1.68421)" d="M239.032 56.7656C240.92 56.3904 246.908 57.7737 246.49 60.0017C245.708 60.1723 242.997 57.7956 238.421 58.5125C236.558 59.109 233.495 61.067 232.245 61.1531C232.588 59.176 237.34 57.2935 239.032 56.7656Z"/><path fill="#F78055" transform="scale(1.68421 1.68421)" d="M228.957 69.1336L229.211 69.2679C229.629 70.232 227.079 76.8751 226.579 78.716C225.881 78.4024 226.157 78.6338 225.729 77.9866C225.551 75.497 227.414 71.0692 228.957 69.1336Z"/><path fill="#E87E78" transform="scale(1.68421 1.68421)" d="M235.65 66.6327L236.049 66.9622C236.233 68.4832 234.451 70.8081 233.523 72.0465C232.192 70.9822 234.827 67.5934 235.65 66.6327Z"/><path fill="#70A6DE" transform="scale(1.68421 1.68421)" d="M259.777 90.7077C260.563 90.7018 260.358 90.593 260.935 90.96C260.488 92.0011 258.081 92.9016 256.95 93.4303C256.35 93.4626 256.378 93.4798 255.87 93.1696L255.998 92.7231C257.085 91.8444 258.493 91.2899 259.777 90.7077Z"/><path fill="#16BDF3" transform="scale(1.68421 1.68421)" d="M273.605 83.5529C274.281 82.841 274.864 82.0611 275.786 81.8021L276.25 81.9329C276.12 82.7483 275.566 83.4953 274.965 84.0697C274.665 83.922 273.945 83.6791 273.605 83.5529Z"/><path fill="#58CCF5" transform="scale(1.68421 1.68421)" d="M55.9221 77.5209C61.9049 83.0472 68.0914 88.6148 74.2591 93.9402C74.1955 98.2901 74.8008 100.473 76.3189 104.522L77.7958 107.441L78.5433 108.02L78.8791 107.824L79.0626 106.179C79.4263 107.567 79.7212 108.643 80.1997 110.008L80.9748 110.083C82.055 108.513 87.4326 109.019 88.8864 110.988L88.9599 111.516C88.2913 111.782 88.1072 111.738 87.3682 111.741L87.2596 111.972L88.1293 112.09L88.26 112.328C89.5192 112.953 90.3048 113.407 91.4913 114.163L91.7825 113.786L91.6077 113.364C92.4853 112.207 98.1052 112.202 99.1398 112.986C99.4474 113.607 99.4456 113.569 99.3554 114.253C99.0559 115.023 97.4401 117.233 96.9139 117.988C90.9379 126.57 83.2482 131.258 72.8415 132.801C58.8013 134.882 46.4825 129.763 35.3332 121.518C43.2001 123.151 54.1782 123.463 62.0248 121.233C64.1078 120.641 66.8087 119.192 68.9205 118.498C70.5916 117.948 72.715 117.582 74.4578 117.247C71.8154 116.929 68.8209 116.791 66.0955 116.524C59.5748 115.886 49.6408 112.994 45.4089 107.645C40.518 103.147 39.6977 97.1574 39.6476 90.9568L39.9056 90.3408C40.437 90.3582 41.4467 91.255 41.9228 91.6288C46.4704 95.1989 55.0495 99.2285 60.3321 95.3082L60.3295 95.0466C59.2302 94.8525 57.926 94.8091 57.2924 93.7871C54.078 88.6019 54.369 83.1448 55.9221 77.5209Z"/><path fill="#9ECF78" transform="scale(1.68421 1.68421)" d="M55.9221 77.5209C61.9049 83.0472 68.0914 88.6148 74.2591 93.9402C74.1955 98.2901 74.8008 100.473 76.3189 104.522C68.7025 106.388 61.2253 106.594 53.6693 104.538C49.3216 102.626 47.5958 101.792 44.232 98.1152C42.3059 96.0097 41.2908 91.8639 39.6476 90.9568L39.9056 90.3408C40.437 90.3582 41.4467 91.255 41.9228 91.6288C46.4704 95.1989 55.0495 99.2285 60.3321 95.3082L60.3295 95.0466C59.2302 94.8525 57.926 94.8091 57.2924 93.7871C54.078 88.6019 54.369 83.1448 55.9221 77.5209Z"/><path fill="#58CCF5" transform="scale(1.68421 1.68421)" d="M63.7594 102.256C61.4753 102.773 52.6308 102.532 51.4625 100.344L51.7774 100.008C52.9454 99.8143 59.228 100.553 61.0907 100.554C62.4871 100.482 68.4818 99.8851 69.2632 100.552C68.477 101.411 67.3291 101.567 66.2205 101.783C65.4416 101.97 64.5453 102.233 63.7594 102.256Z"/><path fill="#16BDF3" transform="scale(1.68421 1.68421)" d="M61.0907 100.554C62.4871 100.482 68.4818 99.8851 69.2632 100.552C68.477 101.411 67.3291 101.567 66.2205 101.783C65.4416 101.97 64.5453 102.233 63.7594 102.256C62.3976 102.292 60.487 102.442 59.5358 101.36C60.0627 100.728 60.0486 100.899 60.9995 100.72L61.0907 100.554Z"/><path fill="#40C4D7" transform="scale(1.68421 1.68421)" d="M61.0907 100.554C62.4871 100.482 68.4818 99.8851 69.2632 100.552C68.477 101.411 67.3291 101.567 66.2205 101.783L66.1671 101.547C64.8598 100.142 63.4849 100.878 60.9995 100.72L61.0907 100.554Z"/><path fill="#84CCAA" transform="scale(1.68421 1.68421)" d="M61.2187 95.9557C62.5511 96.063 66.355 95.9447 66.9253 96.8587L66.6492 97.5215C64.6066 98.2793 61.737 98.7181 61.2187 95.9557Z"/><path fill="#16BDF3" transform="scale(1.68421 1.68421)" d="M39.6476 90.9568C41.2908 91.8639 42.3059 96.0097 44.232 98.1152C47.5958 101.792 49.3216 102.626 53.6693 104.538C61.2253 106.594 68.7025 106.388 76.3189 104.522L77.7958 107.441L78.5433 108.02L78.8791 107.824L79.0626 106.179C79.4263 107.567 79.7212 108.643 80.1997 110.008L80.4637 111.167L80.2242 111.377L79.8552 111.314L79.607 111.598C77.8171 109.081 78.2954 107.227 74.9161 107.41C75.205 108.071 75.307 108.204 75.3453 108.907C74.8073 109.488 73.7628 109.526 72.9074 109.675L72.5205 109.385L69.8789 109.802C68.4544 109.936 67.5819 110.032 66.1332 109.938C63.9309 109.987 56.7323 109.128 55.4569 107.436L55.9387 107.09C54.8916 106.449 54.5792 107.075 53.525 106.695C53.0823 105.671 53.8753 106.492 53.9043 105.193L52.9601 104.617C50.7136 103.809 48.769 102.808 46.8905 101.322C44.3826 99.3387 44.5165 100.181 41.7119 101.012C42.7325 103.41 44.0566 105.018 45.5104 107.213C45.4766 107.357 45.4427 107.501 45.4089 107.645C40.518 103.147 39.6977 97.1574 39.6476 90.9568Z"/><path fill="#9ECF78" transform="scale(1.68421 1.68421)" d="M55.9387 107.09C59.1186 107.875 61.9998 108.098 65.2644 108.356L68.1927 108.464C69.0089 108.517 70.6569 108.508 71.2381 108.926C70.901 109.461 70.489 109.546 69.8789 109.802C68.4544 109.936 67.5819 110.032 66.1332 109.938C63.9309 109.987 56.7323 109.128 55.4569 107.436L55.9387 107.09Z"/><path fill="#7AC45F" transform="scale(1.68421 1.68421)" d="M68.1927 108.464C70.6924 108.156 73.16 108.079 75.6744 108.236C74.5648 108.68 73.66 109.031 72.5205 109.385L69.8789 109.802C70.489 109.546 70.901 109.461 71.2381 108.926C70.6569 108.508 69.0089 108.517 68.1927 108.464Z"/><path fill="#912245" transform="scale(1.68421 1.68421)" d="M79.0626 106.179C79.4263 107.567 79.7212 108.643 80.1997 110.008L80.4637 111.167L80.2242 111.377L79.8552 111.314C79.3947 110.27 78.3688 108.503 77.7958 107.441L78.5433 108.02L78.8791 107.824L79.0626 106.179Z"/><path fill="#84CCAA" transform="scale(1.68421 1.68421)" d="M88.26 112.328C89.5192 112.953 90.3048 113.407 91.4913 114.163C91.1645 114.607 91.3738 114.417 90.7546 114.631C89.4559 114.273 88.8847 114.017 88.0838 112.856L88.26 112.328Z"/><path fill="#40C4D7" transform="scale(1.68421 1.68421)" d="M46.878 103.933C48.0927 103.75 50.1449 105.037 50.4931 106.097L50.0428 105.99L49.9541 106.407L49.5701 106.616C47.6617 106.284 46.9763 105.876 46.878 103.933Z"/><path fill="#FEF462" transform="scale(1.68421 1.68421)" d="M111.372 43.4384C111.979 38.818 111.869 34.4374 112.116 30.0871C112.29 27.0066 117.741 21.6805 120.114 19.8457C125.799 15.469 134.283 12.893 141.35 12.3469C149.773 11.6959 152.891 11.0981 159.799 6.32109C155.967 20.9853 149.466 21.8696 138.688 30.042C135.331 27.1956 133.061 25.4045 129.295 23.0472C133.412 36.7126 122.468 59.2451 126.638 70.3475C122.16 74.2232 119.227 78.4068 116.401 83.5367C104.494 80.6584 106.22 75.7127 109.639 66.965C112.002 60.9212 112.487 49.8531 111.372 43.4384Z"/><path fill="#7AC45F" transform="scale(1.68421 1.68421)" d="M112.05 64.6061L113.149 65.0008C112.765 66.504 111.331 72.4874 110.843 73.6242C110.106 74.2176 110.335 73.8984 110.104 75.0492L109.97 74.9935L110.022 74.7021L109.645 74.5293L109.567 74.2743C109.468 73.9633 109.452 73.9279 109.252 73.6565C109.151 71.2059 111.058 66.9944 112.05 64.6061Z"/><path fill="#7AC45F" transform="scale(1.68421 1.68421)" d="M115.073 43.9131L115.41 44.2796C116.173 48.5033 116.283 53.2988 115.471 57.5143C115.403 57.5209 115.191 57.3989 115.111 57.36C114.837 53.5308 114.306 47.5655 115.073 43.9131Z"/><path fill="#7AC45F" transform="scale(1.68421 1.68421)" d="M121.053 22.9587C121.168 23.8825 118.808 27.4578 118.271 28.627C117.216 30.9239 116.393 33.3225 115.521 35.693C115.349 35.2439 115.391 34.3722 115.463 33.8877C116.118 29.4781 117.591 25.7838 121.053 22.9587Z"/><path fill="#9ECF78" transform="scale(1.68421 1.68421)" d="M109.252 73.6565C109.452 73.9279 109.468 73.9633 109.567 74.2743L109.645 74.5293L110.022 74.7021L109.97 74.9935L110.104 75.0492C110.335 73.8984 110.106 74.2176 110.843 73.6242L110.871 73.9189C111.204 77.3021 113.419 77.5722 116.225 78.5896C115.813 80.1036 108.855 78.4727 109.252 73.6565Z"/><path fill="#9ECF78" transform="scale(1.68421 1.68421)" d="M117.248 67.8996C118.275 68.521 119.327 73.1233 119.738 74.5839C118.005 73.9566 117.444 69.4949 117.248 67.8996Z"/><path fill="#7AC45F" transform="scale(1.68421 1.68421)" d="M121.149 29.6948C121.673 30.2293 118.751 35.668 118.346 36.5205L118.166 36.2829C118.309 33.9861 119.84 31.5401 121.149 29.6948Z"/><path fill="#9ECF78" transform="scale(1.68421 1.68421)" d="M112.05 64.6061C112.321 63.7456 112.32 63.2527 112.903 62.6989C113.396 63.3195 113.234 64.1784 113.149 65.0008L112.05 64.6061Z"/><path fill="#7AC45F" transform="scale(1.68421 1.68421)" d="M100.374 11.5453C110.143 21.2048 111.239 39.8487 107.098 52.1913C107.131 53.0352 106.985 53.2028 107.447 53.7406L107.908 53.8017C109.267 51.3011 110.756 46.2346 111.372 43.4384C112.487 49.8531 112.002 60.9212 109.639 66.965C106.22 75.7127 104.494 80.6584 116.401 83.5367L115.48 85.328L114.975 86.0554C109.046 85.4455 104.62 82.7854 103.196 76.7027C102.913 75.4923 102.91 74.5973 102.528 73.3451L102.444 73.0733L102.956 71.9281C104.51 64.5453 100.036 58.911 95.0258 54.2285C95.7189 61.636 93.0058 68.1997 88.4188 73.9293C85.0411 71.5507 79.4962 67.4382 75.9884 65.5564C79.5781 53.2685 85.3921 52.7617 93.0508 43.5702C101.182 33.8112 101.565 23.5192 100.374 11.5453Z"/><path fill="#FEF462" transform="scale(1.68421 1.68421)" d="M102.956 71.9281L103.916 71.4808C104.373 71.8017 104.386 72.0508 104.462 72.742C105.003 77.6737 105.461 78.7917 109.367 82.0871C110.747 83.251 115.061 84.9081 115.48 85.328L114.975 86.0554C109.046 85.4455 104.62 82.7854 103.196 76.7027C102.913 75.4923 102.91 74.5973 102.528 73.3451L102.444 73.0733L102.956 71.9281Z"/><path fill="#991639" transform="scale(1.68421 1.68421)" d="M107.098 52.1913C107.131 53.0352 106.985 53.2028 107.447 53.7406L107.908 53.8017C107.342 55.7626 105.645 57.8443 104.365 59.4053C105.31 57.2148 106.255 54.4617 107.098 52.1913Z"/><path fill="#FEF462" transform="scale(1.68421 1.68421)" d="M106.011 26.6842C106.141 26.7946 106.372 26.9863 106.435 27.1489C108.97 33.7072 107.006 41.3203 105.027 47.32C104.866 47.5244 104.7 47.6417 104.499 47.8151C104.212 47.3423 104.195 47.1229 104.256 46.5294C104.794 41.3041 105.377 36.0752 105.71 30.8313C105.801 29.405 105.758 28.0978 106.011 26.6842Z"/><path fill="#FEF462" transform="scale(1.68421 1.68421)" d="M109.409 58.6547L109.759 59.1273C109.702 61.8057 107.215 67.29 105.624 69.3035C104.479 68.0354 108.463 60.1654 109.409 58.6547Z"/><path fill="#9ECF78" transform="scale(1.68421 1.68421)" d="M79.0626 106.179C77.292 98.9833 77.2075 90.5994 83.61 85.5722C84.9551 84.3492 87.0159 83.3218 88.2048 81.969C92.189 77.4353 94.6638 71.3357 96.4534 65.6368C96.7074 64.8278 96.7373 64.201 97.3021 63.6097C97.9539 63.7687 97.7376 63.6997 98.2253 64.4466C103.22 75.1809 89.9364 87.6811 103.332 92.6621C104.159 92.9693 105.499 93.2098 106.358 92.9174L106.33 92.6176C104.573 91.883 102.948 90.8091 102.185 88.9748C100.301 84.4493 100.682 77.5845 102.444 73.0733L102.528 73.3451C102.91 74.5973 102.913 75.4923 103.196 76.7027C104.62 82.7854 109.046 85.4455 114.975 86.0554C113.873 88.8052 107.961 99.9326 106.218 102.808L105.41 104.331C105.028 104.953 104.359 106.118 103.94 106.647C102.553 109.311 101.076 111.792 99.3554 114.253C99.4456 113.569 99.4474 113.607 99.1398 112.986C98.1052 112.202 92.4853 112.207 91.6077 113.364L91.7825 113.786L91.4913 114.163C90.3048 113.407 89.5192 112.953 88.26 112.328L88.1293 112.09L87.2596 111.972L87.3682 111.741C88.1072 111.738 88.2913 111.782 88.9599 111.516L88.8864 110.988C87.4326 109.019 82.055 108.513 80.9748 110.083L80.1997 110.008C79.7212 108.643 79.4263 107.567 79.0626 106.179Z"/><path fill="#16BDF3" transform="scale(1.68421 1.68421)" d="M79.0626 106.179C77.292 98.9833 77.2075 90.5994 83.61 85.5722C84.9551 84.3492 87.0159 83.3218 88.2048 81.969C92.189 77.4353 94.6638 71.3357 96.4534 65.6368C96.7074 64.8278 96.7373 64.201 97.3021 63.6097C97.9539 63.7687 97.7376 63.6997 98.2253 64.4466C97.8154 68.5679 97.3932 73.6285 96.1639 77.5765C94.6572 82.4151 92.7095 88.1036 91.026 92.7822C87.2047 103.402 87.3392 111.076 101.281 107.218C102.027 107.012 103.134 106.642 103.94 106.647C102.553 109.311 101.076 111.792 99.3554 114.253C99.4456 113.569 99.4474 113.607 99.1398 112.986C98.1052 112.202 92.4853 112.207 91.6077 113.364L91.7825 113.786L91.4913 114.163C90.3048 113.407 89.5192 112.953 88.26 112.328L88.1293 112.09L87.2596 111.972L87.3682 111.741C88.1072 111.738 88.2913 111.782 88.9599 111.516L88.8864 110.988C87.4326 109.019 82.055 108.513 80.9748 110.083L80.1997 110.008C79.7212 108.643 79.4263 107.567 79.0626 106.179Z"/><path fill="#7AC45F" transform="scale(1.68421 1.68421)" d="M88.4863 86.9237L88.871 87.2074C88.9845 87.8345 87.7069 90.6906 87.3286 91.4873C86.0686 94.1411 85.9172 99.9921 85.1389 101.901C84.4298 101.179 84.4295 100.472 84.3556 99.4751C84.0225 94.9751 85.5237 90.2736 88.4863 86.9237Z"/><path fill="#9ECF78" transform="scale(1.68421 1.68421)" d="M89.179 109.223C89.7871 109.264 92.3675 110.16 93.318 110.437C95.0959 110.957 96.7867 110.935 98.3273 111.389L98.5149 111.821C94.8586 112.583 91.7251 112.253 89.179 109.223Z"/><path fill="#58CCF5" transform="scale(1.68421 1.68421)" d="M95.7588 102.108C97.5611 102.946 98.3415 103.133 100.334 103.164C101.473 104.691 101.64 104.527 103.548 104.529C99.9941 105.198 97.6762 105.109 94.7244 102.958L95.7588 102.108Z"/><path fill="#16BDF3" transform="scale(1.68421 1.68421)" d="M100.334 103.164C102.28 102.978 104.27 102.727 106.218 102.808L105.41 104.331L103.548 104.529C101.64 104.527 101.473 104.691 100.334 103.164Z"/><path fill="#58CCF5" transform="scale(1.68421 1.68421)" d="M92.5171 99.2846C93.6556 100.073 94.8213 101.087 95.7588 102.108L94.7244 102.958C93.4941 101.713 93.195 100.89 92.5171 99.2846Z"/><path fill="#40C4D7" transform="scale(1.68421 1.68421)" d="M95.3245 89.9449C95.6139 90.0239 96.1495 90.2533 96.3027 90.4955C97.4035 92.2363 100.575 96.1881 100.615 98.016C98.0646 96.7078 95.8507 92.7059 95.3245 89.9449Z"/><path fill="#58CCF5" transform="scale(1.68421 1.68421)" d="M245.192 100.312C247.953 98.2227 249.349 101.015 250.95 101.03C251.396 101.077 252.5 101.163 252.883 101.245C254.125 101.511 254.709 101.651 255.963 101.765L255.848 101.89C255.309 101.72 254.623 101.873 254.185 102.231L254.359 102.487C256.518 102.831 257.504 101.701 258.461 102.032L258.407 102.391C259.252 102.918 260.53 103.041 261.542 103.211C264.46 104.655 267.831 106.404 271.03 107.075C276.743 108.272 283.249 108.023 288.756 106.024C286.942 109.967 284.106 112.758 280.392 116.492C276.769 120.136 266.367 123.967 261.545 121.192C261.198 120.993 255.839 113.268 254.903 111.987C251.852 107.81 248.542 104.268 245.192 100.312Z"/><path fill="#B093BF" transform="scale(1.68421 1.68421)" d="M250.948 104.567C253.031 104.918 256.773 104.823 258.489 105.58C259.014 106.174 258.9 105.872 258.877 106.728C256.749 106.567 254.369 106.442 252.259 106.018C251.268 105.819 250.889 105.519 250.948 104.567Z"/><path fill="#9BA0D0" transform="scale(1.68421 1.68421)" d="M258.697 108.09C259.89 108.011 262.866 107.795 263.873 108.452C264.174 108.648 264.099 108.896 264.153 109.35C262.741 109.404 259.827 109.39 258.72 108.585L258.697 108.09Z"/><path fill="#FEFEFE" transform="scale(1.68421 1.68421)" d="M98.0315 239.875C98.5369 238.038 107.337 233.056 108.905 233.422C112.92 234.358 111.805 241.545 109.266 243.735C109.51 244.742 108.894 245.002 107.981 245.321C107.857 245.948 106.199 248.002 105.687 248.411C102.53 250.936 100.388 249.691 98.1654 247.36C100.144 246.518 100.467 246.427 101.518 244.51C100.913 242.866 98.0196 241.973 98.0315 239.875Z"/><path fill="#F389B8" transform="scale(1.68421 1.68421)" d="M98.1654 247.36C100.144 246.518 100.467 246.427 101.518 244.51C103.672 245.789 105.527 245.762 107.981 245.321C107.857 245.948 106.199 248.002 105.687 248.411C102.53 250.936 100.388 249.691 98.1654 247.36Z"/><path fill="#991639" transform="scale(1.68421 1.68421)" d="M98.0315 239.875C101.989 243.827 103.435 244.43 109.266 243.735C109.51 244.742 108.894 245.002 107.981 245.321C105.527 245.762 103.672 245.789 101.518 244.51C100.913 242.866 98.0196 241.973 98.0315 239.875Z"/><path fill="#FEB928" transform="scale(1.68421 1.68421)" d="M75.3183 70.9813C76.9122 72.3366 81.284 75.1245 81.8878 76.3931C81.8464 76.8548 81.8783 76.9532 81.706 77.381L80.9627 78.1193C79.2009 82.3677 67.3321 82.9205 63.9443 80.5128C62.9211 79.7856 60.8032 78.6378 60.4013 77.3467C61.5284 76.0821 64.8521 76.4697 66.5177 75.9016C68.2471 75.3118 69.955 74.3847 71.6917 73.8694C72.4161 73.5976 72.5685 73.4371 73.1692 72.9393L75.3183 70.9813Z"/><path fill="#FEFEFE" transform="scale(1.68421 1.68421)" d="M75.3183 70.9813C76.9122 72.3366 81.284 75.1245 81.8878 76.3931C81.8464 76.8548 81.8783 76.9532 81.706 77.381L80.9627 78.1193C80.2692 78.0483 79.3159 78.0541 78.5991 78.0365C77.4844 78.0381 74.6264 76.6939 73.4664 76.2063C72.3514 75.4467 71.8502 75.2631 71.6917 73.8694C72.4161 73.5976 72.5685 73.4371 73.1692 72.9393L75.3183 70.9813Z"/><path fill="#FEB928" transform="scale(1.68421 1.68421)" d="M75.3183 70.9813C76.9122 72.3366 81.284 75.1245 81.8878 76.3931C81.8464 76.8548 81.8783 76.9532 81.706 77.381C78.9047 76.1698 76.1904 72.4535 73.1692 72.9393L75.3183 70.9813Z"/><path fill="#FFE6C4" transform="scale(1.68421 1.68421)" d="M73.4664 76.2063C74.6264 76.6939 77.4844 78.0381 78.5991 78.0365L77.9933 78.9016C76.9337 79.9413 74.5434 79.9289 72.8771 80.1576C72.4456 79.9036 72.3968 79.9793 72.2666 79.6147C72.3788 78.7479 72.3034 77.8339 72.2688 76.9542C72.9127 76.6811 72.9579 76.672 73.4664 76.2063Z"/><path fill="#FEC158" transform="scale(1.68421 1.68421)" d="M73.4664 76.2063C74.6264 76.6939 77.4844 78.0381 78.5991 78.0365L77.9933 78.9016C76.989 78.0159 76.1317 78.3084 74.4039 77.8293C73.5078 77.1628 73.386 77.0915 72.2688 76.9542C72.9127 76.6811 72.9579 76.672 73.4664 76.2063Z"/><path fill="#FFDFA8" transform="scale(1.68421 1.68421)" d="M72.2688 76.9542C73.386 77.0915 73.5078 77.1628 74.4039 77.8293C73.4998 78.7522 73.4579 79.1597 72.2666 79.6147C72.3788 78.7479 72.3034 77.8339 72.2688 76.9542Z"/><path fill="#FEB928" transform="scale(1.68421 1.68421)" d="M43.3006 47.311C45.777 49.3303 48.5179 50.8456 50.9532 53.1151C52.4634 55.7037 49.1615 57.9452 47.03 58.2221C39.4722 60.3375 36.6643 56.3593 31.6644 51.5978C37.3611 51.096 38.5885 50.2539 43.3006 47.311Z"/><path fill="#FEFEFE" transform="scale(1.68421 1.68421)" d="M40.7753 51.4626L40.3666 50.6654C40.8368 49.5797 42.1867 49.4132 43.2459 48.9301C45.4318 50.375 47.637 52.2354 50.0301 53.1703C49.7553 53.6152 49.6027 53.9856 49.1489 54.2206C44.1948 53.8016 44.7555 52.9157 40.7753 51.4626Z"/><path fill="#FFDFA8" transform="scale(1.68421 1.68421)" d="M40.7753 51.4626C44.7555 52.9157 44.1948 53.8016 49.1489 54.2206C47.6117 56.7348 47.7443 55.5939 45.5721 56.5184C44.6951 56.431 43.8355 54.9033 41.9123 54.5252C40.9597 53.5449 40.4108 52.9047 40.7753 51.4626Z"/><path fill="#FEB928" transform="scale(1.68421 1.68421)" d="M50.0301 53.1703L50.9532 53.1151C52.4634 55.7037 49.1615 57.9452 47.03 58.2221C46.1661 58.1162 46.0266 58.0937 45.1835 58.2888C45.7207 57.2611 45.6054 57.7215 45.5721 56.5184C47.7443 55.5939 47.6117 56.7348 49.1489 54.2206C49.6027 53.9856 49.7553 53.6152 50.0301 53.1703Z"/><path fill="#FEC158" transform="scale(1.68421 1.68421)" d="M41.9123 54.5252C43.8355 54.9033 44.6951 56.431 45.5721 56.5184C45.6054 57.7215 45.7207 57.2611 45.1835 58.2888C44.3966 58.1326 44.3146 58.1478 43.6792 57.6953C42.1152 57.0549 41.59 57.1087 41.1584 55.4527C41.508 55.1448 41.6395 54.9037 41.9123 54.5252Z"/><path fill="#FFE6C4" transform="scale(1.68421 1.68421)" d="M41.1584 55.4527C42.1509 55.5984 44.0129 56.1307 44.7724 56.773L44.7874 57.2013C44.2784 57.5926 44.3104 57.5783 43.6792 57.6953C42.1152 57.0549 41.59 57.1087 41.1584 55.4527Z"/><path fill="#FEB928" transform="scale(1.68421 1.68421)" d="M64.326 64.8564C64.9713 64.1008 64.6609 64.2605 65.4852 64.0879C67.1378 64.5578 71.1958 67.7722 72.2932 69.0239C70.9277 71.7464 69.5988 73.0809 66.6226 73.9837C59.9483 76.0081 55.3926 74.2559 51.2424 69.1838C54.9688 68.5625 57.8433 68.4074 61.2804 66.6096C62.5278 66.0123 63.2532 65.7124 64.326 64.8564Z"/><path fill="#FEFEFE" transform="scale(1.68421 1.68421)" d="M64.326 64.8564C65.5471 65.6806 70.6679 68.8994 70.9854 69.9229L70.7775 70.2013L68.0216 70.3342C65.574 69.7255 64.6676 69.0502 62.4504 67.8619C62.0851 67.5111 61.6352 66.9929 61.2804 66.6096C62.5278 66.0123 63.2532 65.7124 64.326 64.8564Z"/><path fill="#FFDFA8" transform="scale(1.68421 1.68421)" d="M62.4504 67.8619C64.6676 69.0502 65.574 69.7255 68.0216 70.3342L70.7775 70.2013L70.5261 70.2668C68.7338 70.7497 65.1545 74.0313 62.6271 72.647C62.242 72.1109 62.1146 72.023 62.0644 71.3946L62.4758 70.9642C62.255 69.2045 61.8742 69.4782 62.4504 67.8619Z"/><path fill="#FEC158" transform="scale(1.68421 1.68421)" d="M62.4504 67.8619C64.6676 69.0502 65.574 69.7255 68.0216 70.3342C67.2075 71.0168 67.5803 70.8602 66.6094 71.0308C64.7138 70.4859 64.561 69.3257 63.0858 70.0141C62.8282 70.5974 62.9155 70.654 62.4758 70.9642C62.255 69.2045 61.8742 69.4782 62.4504 67.8619Z"/><path fill="#FEB928" transform="scale(1.68421 1.68421)" d="M51.8812 58.6012C53.2226 57.7909 54.058 56.9001 55.2216 56.1536C60.789 60.052 66.9944 63.2786 56.3512 66.7342C55.8464 66.733 53.8784 67.0669 52.9769 67.0979C47.5936 67.2828 45.8287 64.7438 42.2535 61.2661C46.371 60.8492 48.1269 60.5032 51.8812 58.6012Z"/><path fill="#FEFEFE" transform="scale(1.68421 1.68421)" d="M52.0885 58.8618C53.2008 58.5401 53.8629 58.3033 54.935 57.8634C57.2438 59.1128 59.9556 61.1969 62.0379 62.835C57.379 63.386 56.0992 62.596 52.1091 60.0565C51.9797 59.6128 52.0452 59.3188 52.0885 58.8618Z"/><path fill="#FFDFA8" transform="scale(1.68421 1.68421)" d="M51.5743 61.7549L52.1264 61.5167C53.5239 62.3002 54.6348 62.8858 56.0914 63.5759C56.9334 63.8041 57.8723 63.9386 58.4504 64.5267C57.7782 65.1197 56.8978 65.0195 55.956 65.0344C54.1343 64.2189 53.6778 63.9668 52.0529 62.825L51.5743 61.7549Z"/><path fill="#FFE6C4" transform="scale(1.68421 1.68421)" d="M56.0914 63.5759C56.9334 63.8041 57.8723 63.9386 58.4504 64.5267C57.7782 65.1197 56.8978 65.0195 55.956 65.0344L56.5712 64.6545L56.0914 63.5759Z"/><path fill="#FFDFA8" transform="scale(1.68421 1.68421)" d="M51.9118 63.8537C52.7104 64.3656 54.6033 65.3101 55.0433 65.8174C53.9015 66.1133 52.4358 66.2083 51.6052 65.2031C51.4987 64.3015 51.4251 64.6612 51.9118 63.8537Z"/><path fill="#FEB928" transform="scale(1.68421 1.68421)" d="M28.2012 40.9442C29.3762 40.1819 30.0535 39.6601 31.1335 38.7638C32.7268 39.6866 38.9217 43.8053 39.6404 45.2263C39.1498 48.7606 31.0685 49.9561 28.2635 47.9511C25.8001 46.1903 24.0065 44.3614 21.8446 42.2662C24.2005 41.9877 25.7464 41.5836 28.0614 40.9923L28.2012 40.9442Z"/><path fill="#FEFEFE" transform="scale(1.68421 1.68421)" d="M28.4434 41.02C29.3707 40.4948 29.8662 40.1177 30.9014 40.4562C33.3881 41.2694 35.3633 42.8533 37.3156 44.4943L37.4598 44.9896C37.1721 45.2789 37.1546 45.376 36.813 45.4924C34.681 44.9842 27.9929 44.27 28.4434 41.02Z"/><path fill="#FFDFA8" transform="scale(1.68421 1.68421)" d="M28.2012 40.9442L28.4434 41.02C27.9929 44.27 34.681 44.9842 36.813 45.4924C34.4131 46.7338 34.1568 47.8168 30.877 46.4032C29.291 45.7196 27.9188 45.0213 27.2012 43.3499C27.7354 42.4008 27.9184 42.0764 28.0614 40.9923L28.2012 40.9442Z"/><path fill="#7AC45F" transform="scale(1.68421 1.68421)" d="M75.961 40.0491C76.3949 40.2305 76.6891 40.4531 76.8721 40.8865C79.4814 47.0676 75.2986 57.3786 73.3164 63.481C72.4481 62.9456 71.5147 62.2971 70.656 61.7277L67.5379 59.6222C71.7877 54.5171 74.6685 46.4949 75.961 40.0491Z"/><path fill="#FEB928" transform="scale(1.68421 1.68421)" d="M19.3774 30.5751C19.986 30.622 25.1807 34.299 25.9855 34.8785C26.7315 35.4157 27.3976 36.2686 27.704 37.1612C27.4757 39.5239 24.1465 39.9115 22.146 40.0263C17.1879 39.0075 16.0104 36.5882 12.3014 32.9497C15.4308 32.5809 16.6519 32.0571 19.3774 30.5751Z"/><path fill="#FEFEFE" transform="scale(1.68421 1.68421)" d="M17.0124 33.1118C17.6147 32.8468 18.9267 32.2338 19.4881 32.0682C21.0401 33.174 25.4593 35.8014 26.4602 36.6335L26.8255 37.2621C26.3451 37.7725 23.3271 38.7243 22.8357 38.7234C21.7887 38.7214 19.7199 37.6142 18.7158 37.1175C16.9882 36.2772 16.0111 34.9244 17.0124 33.1118Z"/><path fill="#FFE6C4" transform="scale(1.68421 1.68421)" d="M19.9996 35.3955C21.7402 36.2463 23.8528 37.5295 25.7486 37.4298C26.37 37.0304 26.1443 37.2897 26.4602 36.6335L26.8255 37.2621C26.3451 37.7725 23.3271 38.7243 22.8357 38.7234C21.7887 38.7214 19.7199 37.6142 18.7158 37.1175L19.9996 35.3955Z"/><path fill="#FFDFA8" transform="scale(1.68421 1.68421)" d="M18.7158 37.1175C16.9882 36.2772 16.0111 34.9244 17.0124 33.1118C17.6332 34.0262 19.0342 34.6457 19.9996 35.3955L18.7158 37.1175Z"/><path fill="#FEFEFE" transform="scale(1.68421 1.68421)" d="M83.9037 243.035C85.3395 242.987 87.4604 242.851 88.8428 242.95C90.2404 246.308 86.8261 251.475 85.0199 254.206C81.8714 254.611 81.4156 254.544 78.4195 253.621C79.4196 251.807 82.9718 244.09 83.9037 243.035Z"/><path fill="#FEFEFE" transform="scale(1.68421 1.68421)" d="M102.044 224.915C105.217 225.45 106.312 226.149 108.797 228.019C106.945 230.646 107.325 230.83 104.34 232.242L101.379 233.578C100.105 232.427 99.3638 231.779 98.279 230.411C99.4071 227.789 100.162 226.958 102.044 224.915Z"/><path fill="#FEB928" transform="scale(1.68421 1.68421)" d="M3.31428 21.444C5.41029 21.4321 16.5032 27.862 16.9348 29.393L16.652 29.8334C13.9516 30.983 13.4739 30.9822 10.6016 30.6939C8.35263 28.8347 4.01815 24.3273 3.31428 21.444Z"/><path fill="#FEFEFE" transform="scale(1.68421 1.68421)" d="M5.77959 23.6842C5.95058 23.6882 6.48661 23.7219 6.73363 23.8441C9.41759 25.1712 12.0498 26.7403 14.6682 28.1993C14.813 28.5311 14.9309 28.8014 15.0221 29.0103C11.8605 30.223 6.72277 26.3498 5.77959 23.6842Z"/><path fill="#FEFEFE" transform="scale(1.68421 1.68421)" d="M84.2978 241.191C86.2956 237.159 87.2186 233.407 90.4188 230.153C90.5378 234.046 90.9404 237.811 89.4313 241.468L88.8428 242.95C87.4604 242.851 85.3395 242.987 83.9037 243.035C83.9611 242.164 84.0037 242.015 84.2978 241.191Z"/><path fill="#991639" transform="scale(1.68421 1.68421)" d="M83.9037 243.035C83.9611 242.164 84.0037 242.015 84.2978 241.191C86.1199 241.567 87.5845 241.517 89.4313 241.468L88.8428 242.95C87.4604 242.851 85.3395 242.987 83.9037 243.035Z"/><path fill="#FEB928" transform="scale(1.68421 1.68421)" d="M82.5805 80.2672L82.857 80.544C82.3194 81.7936 79.2759 83.8803 78.1145 85.2416C76.3861 87.2674 76.0509 87.8742 74.8732 90.2038L72.3464 88.1171C71.0946 87.088 69.8969 85.9696 68.6983 84.8771C70.8076 84.142 72.6609 84.0139 74.8102 83.5927C77.7129 83.0238 80.0244 81.6801 82.5805 80.2672Z"/><path fill="#FEFEFE" transform="scale(1.68421 1.68421)" d="M82.9766 255.896L83.4527 255.87L83.5634 256.198C81.6623 259.423 78.4684 260.586 74.9398 260.63C74.5099 260.519 74.6781 260.637 74.4323 260.249C74.9506 259.023 76.3214 257.049 77.0886 255.867C79.0576 255.912 81.0075 255.903 82.9766 255.896Z"/><path fill="#FEFEFE" transform="scale(1.68421 1.68421)" d="M92 240.297C94.064 240.079 94.5888 240.164 96.4667 241.253C97.4516 241.824 99.4072 243.422 99.7054 244.528C96.8108 245.206 92.5975 243.07 92 240.297Z"/><path fill="#FEFEFE" transform="scale(1.68421 1.68421)" d="M96.45 233.447C97.4667 233.405 98.881 233.869 99.9065 234.148C98.3508 235.396 97.42 236.136 96.0432 237.589C95.1261 238.124 94.0854 238.216 93.4694 237.245C93.5675 235.897 95.4401 234.402 96.45 233.447Z"/><path fill="#FEE65E" transform="scale(1.68421 1.68421)" d="M201.812 22.3425C203.208 21.9377 204.525 21.5621 205.897 21.0701C204.777 22.3158 203.695 23.5079 202.533 24.7166L200.703 24.3337C201.294 23.5231 201.546 23.3564 201.812 22.3425Z"/><path fill="#FAA24D" transform="scale(1.68421 1.68421)" d="M247.952 37.0675C248.999 36.6916 249.976 36.3386 251.042 36.0235L251.399 36.2311C251.317 37.0774 250.919 37.541 250.454 38.2658C249.47 38.5977 249.202 38.5753 248.177 38.5969C248.177 38.3909 247.994 37.3384 247.952 37.0675Z"/><path fill="#FEFEFE" transform="scale(1.68421 1.68421)" d="M109.229 228.954C110.258 229.555 111.774 232.301 111.511 233.47C109.866 232.326 108.45 230.947 109.229 228.954Z"/><path fill="#8E0441" fill-opacity="0.023529412" transform="scale(1.68421 1.68421)" d="M251.327 204.176C251.992 205.982 252.118 207.667 252.218 209.582C251.786 210.192 251.379 210.952 251.003 211.607C250.645 211.104 250.678 209.995 250.578 209.21C250.803 207.527 251.067 205.854 251.327 204.176Z"/><path fill="#8E0441" fill-opacity="0.26274511" transform="scale(1.68421 1.68421)" d="M220.806 235.988C220.83 237.932 220.935 241.425 220.516 243.301C220.512 241.939 220.706 240.573 220.071 239.501C220.046 238.985 220.176 238.181 220.24 237.641L220.806 235.988Z"/><path fill="#912245" fill-opacity="0.75294119" transform="scale(1.68421 1.68421)" d="M89.3884 254.907L89.8647 255.095C89.4205 256.538 89.0719 257.888 88.8445 259.382C88.7255 260.164 88.7591 261.182 88.5849 261.892C88.579 260.678 88.6168 259.636 88.3602 258.441C88.3634 258.381 89.2621 255.413 89.3884 254.907Z"/><path fill="#912245" fill-opacity="0.27450982" transform="scale(1.68421 1.68421)" d="M89.3884 254.907C89.6478 254.021 89.8818 252.835 90.4958 252.216C90.7916 252.95 90.2627 254.159 89.9588 254.875L89.8647 255.095L89.3884 254.907Z"/><path fill="#912245" fill-opacity="0.6156863" transform="scale(1.68421 1.68421)" d="M220.24 237.641C220.236 236.486 220.154 235.237 220.525 234.157C220.801 234.661 220.772 235.391 220.806 235.988L220.24 237.641Z"/></svg>